<svg width="230" height="102" viewBox="0 0 230 102" fill="none" xmlns="http://www.w3.org/2000/svg">
<path d="M14.7002 4.8H17.0002L20.0002 13.4H20.1002L23.0002 4.8H25.3002V20.4H23.0002V10.6L20.6002 17.7H19.4002L17.1002 10.6H17.0002V20.4H14.7002V4.8ZM30.6002 4.8L28.0002 4.7L31.5002 15.5L31.2002 16.8C31.1002 17.1 30.9002 17.6 30.7002 17.8C30.5002 18 30.1002 18.2 29.7002 18.2H29.1002V20.3H30.0002C30.6002 20.3 31.2002 20.3 31.9002 19.9C33.2002 19.1 33.5002 17.1 33.9002 15.4L36.6002 4.8H34.3002L33.3002 9.3C33.1002 10.2 32.8002 11.6 32.7002 12.5H32.6002L30.6002 4.8ZM38.7002 7.8V9.2H40.9002V8.2C40.9002 7.9 40.9002 7.4 41.3002 7.1C41.5002 6.9 41.9002 6.7 42.3002 6.7C42.8002 6.7 43.1002 6.8 43.4002 7C43.9002 7.4 43.9002 7.9 43.9002 8.2V9.2C43.9002 9.5 43.9002 10.1 43.5002 10.6C43.2002 10.9 42.7002 11.1 42.1002 11.1H41.5002V13.1H42.2002C42.9002 13.1 43.2002 13.3 43.4002 13.4C44.0002 13.9 44.0002 14.8 44.0002 15.2V16.6C44.0002 17.1 44.0002 17.6 43.6002 18C43.4002 18.2 43.1002 18.3 42.5002 18.3C42.1002 18.3 41.6002 18.2 41.3002 17.9C41.1002 17.7 41.0002 17.2 41.0002 16.8V16H38.8002V17.5C38.8002 18.9 39.6002 19.6 39.8002 19.8C40.6002 20.5 41.6002 20.6 42.5002 20.6C43.5002 20.6 44.5002 20.4 45.3002 19.7C46.1002 18.9 46.3002 17.9 46.3002 17.1V15.3C46.3002 14.7 46.2002 14 45.8002 13.3C45.6002 13.1 45.3002 12.7 44.7002 12.3C45.0002 12.1 45.4002 11.8 45.6002 11.6C46.2002 10.9 46.3002 10 46.3002 9.2V7.8C46.3002 6.3 45.5002 5.5 45.1002 5.3C44.4002 4.8 43.5002 4.6 42.6002 4.6C41.4002 4.6 40.6002 4.9 40.1002 5.3C38.8002 6.1 38.7002 7.2 38.7002 7.8ZM49.4002 20.4H56.0002V18.3H51.6002V13.6H55.4002V11.6H51.6002V6.9H56.0002V4.8H49.4002V20.4ZM59.2002 4.8V20.4H61.5002V18.6L65.2002 10.8V20.4H67.4002V4.7H65.2002V6.5L61.5002 14.3V4.8H59.2002ZM66.1002 1.3V1H64.3002V1.2C64.3002 1.4 64.2002 1.6 64.0002 1.8C63.8002 2 63.5002 2 63.3002 2C63.0002 2 62.8002 1.9 62.6002 1.8C62.3002 1.6 62.3002 1.3 62.3002 1.2V1H60.5002V1.3C60.5002 2.2 60.8002 2.8 61.2002 3.1C61.7002 3.5 62.4002 3.7 63.2002 3.7C64.0002 3.7 64.8002 3.5 65.2002 3.1C65.6002 2.8 66.0002 2.2 66.0002 1.3H66.1002Z" fill="#221F1F"/>
<path d="M106.2 4.79999H109.5C110.5 4.79999 111.6 4.89999 112.6 5.79999C113.6 6.89999 113.7 8.19999 113.7 9.39999V9.89999C113.7 10.7 113.6 12 112.7 13.1C111.8 14.2 110.6 14.3 109.7 14.3H108.4V20.5H106.2V4.79999ZM108.4 12.2H109.6C110.1 12.2 110.6 12.1 111.1 11.6C111.6 11.1 111.6 10.5 111.6 9.99999V8.99999C111.6 8.49999 111.6 7.69999 111 7.19999C110.5 6.79999 109.9 6.79999 109.2 6.79999H108.4V12.2Z" fill="#221F1F"/>
<path d="M158.6 8.8C158.6 7.6 158.7 6.5 159.7 5.5C160.4 4.9 161.3 4.5 162.4 4.5C163.5 4.5 164.5 4.9 165.1 5.5C166.2 6.5 166.2 7.6 166.2 8.8V16.2C166.2 17.4 166.1 18.5 165.1 19.5C164.4 20.1 163.5 20.5 162.4 20.5C161.3 20.5 160.3 20.1 159.7 19.5C158.6 18.5 158.6 17.4 158.6 16.2V8.8ZM164.2 8.5C164.2 8 164.1 7.5 163.7 7.1C163.5 6.9 163.1 6.6 162.5 6.6C161.9 6.6 161.5 6.8 161.3 7.1C160.9 7.5 160.8 8 160.8 8.5V16.6C160.8 17.1 160.9 17.6 161.3 18C161.5 18.2 161.9 18.5 162.5 18.5C163.1 18.5 163.5 18.3 163.7 18C164.1 17.6 164.2 17.1 164.2 16.6V8.5Z" fill="#221F1F"/>
<path d="M118.3 4.79998L120.4 12.4H120.5C120.6 11.6 120.9 10.1 121.1 9.19998L122.1 4.69998H124.4L121.7 15.3C121.2 17.1 121 19 119.7 19.8C119 20.2 118.3 20.2 117.8 20.2H117V18.1H117.6C118.1 18.1 118.4 17.9 118.6 17.7C118.8 17.5 119 17.1 119.1 16.7L119.4 15.4L115.9 4.59998L118.3 4.79998ZM131.8 8.29998L131.7 9.29998H133.8V8.19998C133.8 7.09998 133.3 6.19998 132.8 5.59998C132.1 4.89998 131 4.59998 130.1 4.59998C129.3 4.59998 128.2 4.89998 127.6 5.49998C126.6 6.29998 126.5 7.49998 126.5 8.49998V16.5C126.5 17.3 126.5 18.4 127.3 19.3C127.8 19.9 128.7 20.5 130.1 20.5C131.7 20.5 132.6 19.9 133 19.4C133.5 19 134 18.1 134 16.6V16H131.8V16.6C131.8 17.3 131.6 17.7 131.5 17.8C131.2 18.1 130.8 18.3 130.3 18.3C129.7 18.3 129.3 18 129.2 17.7C128.9 17.3 128.9 16.9 128.9 16.3V8.69998C128.9 8.19998 129 7.59998 129.3 7.19998C129.5 6.89998 129.9 6.69998 130.4 6.69998C131.1 6.69998 131.4 7.09998 131.5 7.29998C131.7 7.49998 131.8 7.99998 131.8 8.29998ZM142.2 8.29998H142.1V9.29998H144.2V8.19998C144.2 7.09998 143.7 6.19998 143.2 5.59998C142.5 4.89998 141.4 4.59998 140.5 4.59998C139.7 4.59998 138.6 4.89998 138 5.49998C137 6.29998 136.9 7.49998 136.9 8.49998V16.5C136.9 17.3 136.9 18.4 137.7 19.3C138.2 19.9 139.1 20.5 140.5 20.5C142.1 20.5 143 19.9 143.4 19.4C143.9 19 144.4 18.1 144.4 16.6V16H142.2V16.6C142.2 17.3 142 17.7 141.9 17.8C141.6 18.1 141.2 18.3 140.7 18.3C140.1 18.3 139.7 18 139.6 17.7C139.3 17.3 139.3 16.9 139.3 16.3V8.69998C139.3 8.19998 139.4 7.59998 139.7 7.19998C139.9 6.89998 140.3 6.69998 140.8 6.69998C141.5 6.69998 141.9 7.09998 142 7.29998C142.1 7.49998 142.2 7.99998 142.2 8.29998ZM149.7 4.79998H147.6V20.4H149.8V13.5H151.6L153.5 20.4H155.9L153.5 12.3C153.7 12.2 153.9 12 154 11.7C154.2 11.1 154.3 10.6 154.3 9.99998L154.5 8.49998C154.6 7.49998 154.7 7.09998 155 6.89998C155.2 6.79998 155.4 6.69998 155.6 6.69998H155.9V4.69998H155.6C155 4.69998 154.1 4.69998 153.5 5.29998C152.8 5.89998 152.7 6.79998 152.6 7.69998L152.3 8.99998C152.2 10.1 152.1 10.6 151.8 11C151.6 11.3 151.3 11.5 151 11.5H149.8V4.79998H149.7ZM169.7 20.4H172V6.89998H176.5V4.79998H169.7V20.4Z" fill="#221F1F"/>
<path d="M179 8.8C179 7.6 179.1 6.5 180.2 5.5C180.9 4.9 181.8 4.5 182.9 4.5C184 4.5 185 4.9 185.6 5.5C186.7 6.5 186.7 7.6 186.7 8.8V16.2C186.7 17.4 186.6 18.5 185.6 19.5C184.9 20.1 184 20.5 182.9 20.5C181.8 20.5 180.8 20.1 180.2 19.5C179.1 18.5 179 17.4 179 16.2V8.8ZM184.6 8.5C184.6 8 184.5 7.5 184.1 7.1C183.9 6.9 183.5 6.6 182.9 6.6C182.3 6.6 181.9 6.8 181.7 7.1C181.2 7.5 181.2 8 181.2 8.5V16.6C181.2 17.1 181.3 17.6 181.7 18C181.9 18.2 182.3 18.5 182.9 18.5C183.5 18.5 183.9 18.3 184.1 18C184.6 17.6 184.6 17.1 184.6 16.6V8.5Z" fill="#221F1F"/>
<path d="M38.1 58.8C22.6 61.2 7.69996 63.7 5.49996 63.7C4.49996 63.7 3.99996 63.1 4.09996 62.5C4.39996 60.6 19.3 58.9 36.5 56.4C48.1 54.8 62.1 52.1 69.8 51.7C73.2 51.5 74.3 51.6 73.9 52.4C73.3 53.2 55.5 56 38.1 58.8Z" fill="#A10067"/>
<path d="M99.5001 41.8C100.2 45 102.4 47.1 104.6 47.1C107.4 47.1 109.2 45.9 110.4 44.1C111.1 45.7 112.5 46.9 115 46.9C117.9 46.9 120.3 45.5 123 42.7C123.3 45.1 125 46.2 126.7 46.2C130 46.2 132.9 43.9 134.3 42.2C134.3 44.9 134.8 45.8 135.5 45.8C137.1 45.8 139.3 43 140.5 41.2C141.7 44.3 143.2 45.9 145 45.9C146.8 45.9 148.2 45.2 149.5 44.1C150.1 45.5 151.2 46.3 152.4 46.3C155.7 46.3 157 42.9 157 40C157 38.4 156.3 37.5 155 37.7C154.4 37.8 154.2 44.1 152.7 44.1C152.2 44.1 151.8 43.2 151.8 41.6C151.8 38.3 153.2 37.1 153.5 36.7C153.8 36.4 153.6 36.1 153 36.1C151.2 36.1 148.9 38.2 148.9 41.7C148.9 42 148.9 42.3 149 42.6C148.1 43.2 147.1 43.8 146.3 43.8C145.2 43.8 143.6 42.7 143.4 39.3C143.1 35.7 142.8 35.1 142 35.1C140.6 35.1 138.7 42.9 136.6 42.9C136.5 42.9 136.4 42.8 136.4 42.7C136.4 41.6 137.6 37.5 137.6 36.1C137.6 35.8 137.3 35.6 137 35.6C135.4 35.6 134.7 37.9 134.5 40C133.1 41.4 130.2 43.4 128.1 43.4C126.6 43.4 126 42.6 126 41.3C126 38.5 128.7 35.9 131 35.1C131.9 34.8 132.2 34.6 132.2 34C132.2 33.3 131.5 32.7 130.2 32.7C124.3 32.7 123.4 44.1 116.9 44.1C115 44.1 113.9 42.2 113.9 39.6C113.9 35.7 115.7 32.9 117.2 32.9C118.6 32.9 118.6 34.3 119.1 34.7C119.7 35.2 120.5 34.3 120.5 32.9C120.5 31.1 119.5 29.4 117.5 29.4C113.7 29.4 110 34.4 110 40.2C110 41 110.1 41.8 110.2 42.6C109.2 43.8 107.8 44.3 106.8 44.3C104.5 44.3 103.5 42.9 103.5 41C103.5 39.6 107.4 38.7 107.4 34.6C107.4 32.7 106.2 31.7 104.6 31.7C102.5 31.7 99.6001 34 99.6001 39.6C98.3001 41.2 93.0001 46.4 93.1001 44.4C93.4001 38.9 92.2001 37.2 90.2001 37.2C87.6001 37.2 85.3001 39.7 83.2001 43.7C83.0001 40.7 82.7001 37.9 82.6001 35.1C82.9001 34.6 83.3001 34.1 83.6001 33.6C87.5001 27.1 88.9001 19.5 88.9001 12.2C88.9001 6.60002 86.9001 1.40002 84.2001 1.40002C81.5001 1.40002 78.6001 5.50002 78.6001 18.3C78.6001 23.7 79.0001 29.8 79.5001 36C79.3001 36.2 79.2001 36.5 79.0001 36.6C75.8001 40.3 71.8001 42.9 68.4001 42.9C65.6001 42.9 65.5001 36.9 62.6001 36.9C62.0001 36.9 61.1001 37.6 59.8001 39.9C59.7001 38.5 59.7001 36.8 58.6001 36.8C57.8001 36.8 57.9001 37.4 57.2001 38.8C55.8001 41.7 50.4001 44.3 47.3001 44.3C43.5001 44.3 42.6001 40.3 42.6001 38.1C42.6001 35.9 43.5001 33.8 43.5001 32.4C43.5001 31.4 42.8001 30.5 41.7001 30.5C39.0001 30.5 39.0001 34.1 37.9001 36.9C36.5001 40.6 35.4001 41.9 34.6001 41.9C33.2001 41.9 32.6001 36.5 32.9001 33.9C33.1001 32.2 32.6001 31.8 32.0001 31.8C29.6001 31.8 29.9001 36 28.8001 39.4C28.1001 41.5 26.8001 43.1 25.9001 43.1C24.7001 43.1 25.5001 38.1 24.0001 38.1C22.8001 38.1 19.0001 43.9 15.4001 43.9C12.5001 43.9 12.6001 33.9 9.7001 33.9C7.6001 33.9 6.8001 43.4 4.5001 43.4C4.0001 43.4 3.1001 42.4 5.0001 34.8C5.1001 34.3 4.7001 34.1 4.5001 34.1C2.9001 34.1 1.1001 38.4 1.1001 41.9C1.1001 44.7 2.1001 46.9 3.6001 46.9C7.1001 46.9 8.9001 40.3 9.4001 40.3C10.2001 40.3 10.8001 46.6 14.7001 46.6C18.0001 46.6 20.9001 43.6 22.3001 42.4C22.5001 45.3 23.0001 46.9 24.2001 46.9C26.8001 46.9 29.3001 42.4 30.3001 42.4C31.3001 42.4 31.5001 46.7 33.4001 46.7C35.7001 46.7 38.4001 41.2 38.9001 41.2C39.4001 41.2 40.3001 48.1 45.7001 48.1C49.9001 48.1 55.3001 44.5 57.4001 41C57.4001 43.4 57.8001 45.7 58.9001 45.7C60.1001 45.7 61.0001 41 62.1001 41C63.5001 41 63.5001 45.7 67.2001 45.7C71.2001 45.7 75.7001 43 79.6001 38.9C79.9001 42.5 80.3001 46 80.6001 49.5C79.5001 52.4 78.6001 55.5 77.7001 58.8C74.8001 68.4 73.0001 78.9 73.0001 86C73.0001 96.3 75.8001 101 78.8001 101C83.0001 101 86.4001 93.6 86.4001 78.9C86.4001 69.5 84.0001 59.3 83.2001 49.1C83.2001 48.9 83.2001 48.8 83.1001 48.6C85.0001 43.7 86.8001 41 87.3001 41C89.7001 41 87.1001 50 90.9001 50C94.0001 50.2 98.3001 44 99.5001 41.8ZM103.8 34.7C104.9 35 104 37.3 101.7 38.3C101.3 38.4 101.7 34.7 103.8 34.7ZM81.8001 19.5C81.8001 10.4 82.8001 6.10002 83.8001 6.10002C85.0001 6.10002 85.6001 9.60003 85.6001 13C85.6001 19.1 84.5001 26.2 81.9001 31.6C81.9001 27.9 81.8001 24.2 81.8001 19.5ZM82.5001 79.4C82.5001 86.8 81.8001 98 79.2001 98C77.3001 98 76.3001 92.3 76.3001 86.6C76.3001 74.3 78.5001 63.5 80.9001 55.5C81.9001 64.1 82.5001 72.3 82.5001 79.4Z" fill="#A10067"/>
<path d="M229 50C226.2 49.9 225.2 42.7 224.8 43.1C224.5 43.3 223.2 47.3 220.4 47.3C219.4 47.3 218.4 46.2 218.3 43.3C216.1 45.6 212.3 47.3 209.8 47.3C206.1 47.3 206.5 41.9 205.6 41.9C205.4 41.9 203.8 46.4 201.4 46.4C199.2 46.4 198.6 43.3 198.3 43C198.1 42.8 195.7 46.8 193.7 46.8C192.1 46.8 191.4 45.2 191.4 43.5C191.4 42.3 191.9 41.1 192.9 41.1C193.8 41.1 194.2 43.6 195.2 43.6C197.7 43.6 196.7 34.8 200.3 34.8C201.4 34.8 200.8 43.4 202.3 43.4C204 43.4 204.3 35.7 206.5 35.7C209.3 35.7 208.5 44.3 210.5 44.8C212 45.2 216.3 43.8 218.6 41.2C219.3 37.8 222.2 35.7 224.2 35.7C224.7 35.7 225 35.8 225 36.2C225 36.7 224.5 37 223.2 38.1C220.7 40.2 219.6 44.6 222 44.6C223 44.6 224.3 40.4 225.3 37.8C225.7 36.8 227.3 36.6 227.4 37.6C227.5 39.5 227.6 41.4 227.9 43.2C228.4 46.3 229.4 48.8 229.6 49.8C229.5 49.9 229.2 50.1 229 50Z" fill="#A10067"/>
<path d="M188.2 43.4C188.2 44 193.5 47.2 193.5 59.1C193.5 72.5 188.9 86.5 180.3 86.5C177.9 86.5 175.9 84.8 175.9 81.6C175.9 74.8 182 65.7 187.2 65.5C187.7 65.5 187.8 65.5 187.7 65.7C185.7 67.2 178.7 76.1 178.7 82C178.7 83.8 179.3 84.8 180.6 84.8C185.3 84.8 189.5 70.7 189.5 60.1C189.5 50.9 188.5 46.8 185.9 44.8C185.7 44.7 185.7 44.4 185.8 44.3C187 42.5 189.2 38.7 186.5 38.7C185.7 38.7 183.6 46.6 179 46.6C175.9 46.6 175.8 41.2 175.3 41.2C174.8 41.1 172.7 46.7 170.3 46.7C169.5 46.7 169.2 45 169.2 43C169.2 37.5 169.7 35.5 171 35.5C171.6 35.5 172.1 36.1 172.1 38C172.1 39.3 171.4 42.6 171.8 42.7C173 42.5 174.6 36.9 174.9 36.3C175.1 35.9 175.5 35.8 175.8 35.8C178.2 35.8 177.6 44.3 179.6 44.3C183.4 44.3 183.8 35.5 187.4 35.5C188.9 35.5 190.1 36.6 190.1 38.7C190.2 41.4 188.2 43.1 188.2 43.4Z" fill="#A10067"/>
<path d="M169.8 48.7C165.6 47.2 167.1 35.5 165.1 35.5C163.1 35.5 164 39.9 162.3 41.3C162.1 41.5 161.8 41.7 161.5 41.8C160.9 40.2 160.7 37.6 159.2 37.6C158.3 37.6 157.8 39 157.8 40.8C157.8 43.3 158.6 46.7 159.8 48.9C124.5 49.5 105.6 53.4 95.7999 54.8C94.8999 55 94.3999 55.2 94.3999 55.6C94.3999 56.3 95.1999 57.1 98.6999 56.8C115.4 55.2 130.3 51.2 161.3 51.2H169.3C169.7 51.2 169.9 50.6 169.9 50C170.2 49.3 170 48.8 169.8 48.7ZM163.8 43C164.3 42.7 164.3 46.5 166.5 48.7C165.1 48.7 163.7 48.7 162.4 48.8C162.3 45.4 162.3 44 163.8 43Z" fill="#A10067"/>
</svg>
