<svg width="24" height="25" viewBox="0 0 24 25" fill="none" xmlns="http://www.w3.org/2000/svg">
<path d="M11.625 0.875C5.20467 0.875 0 6.07967 0 12.5C0 18.9203 5.20467 24.125 11.625 24.125C18.0453 24.125 23.25 18.9203 23.25 12.5C23.25 6.07967 18.0453 0.875 11.625 0.875ZM17.0134 8.78094C16.8384 10.6191 16.0815 15.0799 15.6962 17.1388C15.5332 18.0099 15.2123 18.302 14.9017 18.3305C14.2267 18.3927 13.714 17.8844 13.0602 17.4558C12.037 16.7851 11.459 16.3676 10.4658 15.7131C9.31809 14.9568 10.0621 14.5413 10.7162 13.8616C10.8874 13.6838 13.8619 10.9783 13.9194 10.7329C13.9266 10.7022 13.9335 10.5875 13.8653 10.5274C13.7972 10.4672 13.6971 10.4876 13.6246 10.5039C13.522 10.5272 11.8875 11.6076 8.72114 13.745C8.25723 14.0635 7.83702 14.2187 7.46048 14.2106C7.04541 14.2017 6.24698 13.976 5.65341 13.783C4.92539 13.5463 4.34677 13.4212 4.39716 13.0193C4.42341 12.81 4.71169 12.5959 5.262 12.3771C8.65094 10.9006 10.9108 9.9272 12.0414 9.45683C15.2698 8.114 15.9406 7.88075 16.3779 7.87297C16.4741 7.87137 16.6891 7.89519 16.8284 8.0082C16.921 8.08871 16.9801 8.20106 16.9938 8.32302C17.0174 8.47445 17.024 8.62805 17.0134 8.78094Z" fill="#39A6C8"/>
</svg>
